<svg width="45" height="45" viewBox="0 0 45 45" fill="none" xmlns="http://www.w3.org/2000/svg">
<path d="M16 2H29V25H16V2Z" fill="#FF5F00"/>
<path d="M16.8214 13.5C16.8214 9.18756 18.8626 5.36249 22 2.88743C19.6943 1.08746 16.7837 0 13.6085 0C6.08585 0 0 6.03741 0 13.5C0 20.9624 6.08585 27 13.6083 27C16.7836 27 19.6942 25.9125 22 24.1124C18.8626 21.6749 16.8214 17.8124 16.8214 13.5Z" fill="#EB001B"/>
<path d="M44.9998 13.5C44.9998 20.9624 38.6374 27 30.7731 27C27.4535 27 24.4106 25.9125 22 24.1124C25.3196 21.6375 27.4141 17.8124 27.4141 13.5C27.4141 9.18756 25.28 5.36249 22 2.88743C24.4105 1.08746 27.4535 0 30.7731 0C38.6374 0 44.9998 6.07499 44.9998 13.5Z" fill="#F79E1B"/>
</svg>
