<svg width="40" height="40" viewBox="0 0 40 40" fill="none" xmlns="http://www.w3.org/2000/svg">
<g clip-path="url(#clip0_557_5)">
<path d="M20 0C14.6957 0 9.60859 2.10714 5.85786 5.85786C2.10714 9.60859 0 14.6957 0 20C0 25.3043 2.10714 30.3914 5.85786 34.1421C9.60859 37.8929 14.6957 40 20 40C25.3043 40 30.3914 37.8929 34.1421 34.1421C37.8929 30.3914 40 25.3043 40 20C40 14.6957 37.8929 9.60859 34.1421 5.85786C30.3914 2.10714 25.3043 0 20 0ZM21.07 6.88833C22.6617 6.88833 23.9533 8.18167 23.9533 9.77833V24.8883H26.62C27.8944 24.8551 29.1054 24.3254 29.9949 23.4123C30.8845 22.4992 31.3823 21.2748 31.3823 20C31.3823 18.7252 30.8845 17.5008 29.9949 16.5877C29.1054 15.6746 27.8944 15.1449 26.62 15.1117H25.51V12.2217H26.6183C27.6389 12.2225 28.6493 12.4244 29.5919 12.8158C30.5345 13.2072 31.3907 13.7804 32.1118 14.5026C32.8328 15.2249 33.4045 16.0822 33.7943 17.0254C34.1841 17.9686 34.3842 18.9794 34.3833 20C34.3844 21.0205 34.1845 22.0312 33.7949 22.9745C33.4053 23.9177 32.8338 24.7749 32.1129 25.4972C31.3919 26.2196 30.5358 26.7928 29.5933 27.1842C28.6509 27.5756 27.6405 27.7775 26.62 27.7783H21.0717L21.07 6.88833ZM13.3067 12.2217H18.855V33.11C17.2617 33.11 15.9717 31.8167 15.9717 30.2217V15.11H13.305C12.0239 15.1337 10.8033 15.6592 9.90575 16.5735C9.00815 17.4878 8.50527 18.7179 8.50527 19.9992C8.50527 21.2804 9.00815 22.5105 9.90575 23.4249C10.8033 24.3392 12.0239 24.8647 13.305 24.8883H14.415V27.7767H13.3067C12.2863 27.7758 11.2761 27.5739 10.3337 27.1827C9.39136 26.7914 8.53529 26.2183 7.8144 25.4962C7.09351 24.774 6.52191 23.917 6.13224 22.974C5.74257 22.0309 5.54246 21.0204 5.54333 20C5.54224 18.9795 5.74219 17.9688 6.13176 17.0255C6.52133 16.0823 7.09289 15.2251 7.81381 14.5027C8.53472 13.7804 9.39086 13.2072 10.3333 12.8158C11.2758 12.4244 12.2862 12.2225 13.3067 12.2217Z" fill="#2CA01C"/>
</g>
<defs>
<clipPath id="clip0_557_5">
<rect width="40" height="40" fill="white"/>
</clipPath>
</defs>
</svg>
