<svg width="45" height="45" viewBox="0 0 45 45" fill="none" xmlns="http://www.w3.org/2000/svg">
<path d="M17.085 15.4913L11.1937 29.5463H7.35L4.45125 18.3281C4.275 17.6381 4.12313 17.385 3.58687 17.0944C2.71312 16.62 1.26937 16.1756 0 15.8981L0.08625 15.4913H6.27375C6.67809 15.4908 7.06925 15.635 7.37664 15.8977C7.68403 16.1604 7.88738 16.5243 7.95 16.9238L9.48188 25.0575L13.2656 15.4913H17.085ZM32.1469 24.9581C32.1619 21.2475 27.0169 21.0431 27.0525 19.3856C27.0638 18.8813 27.5438 18.345 28.5938 18.2081C29.8243 18.0913 31.0636 18.3089 32.1806 18.8381L32.8181 15.8569C31.7306 15.448 30.5787 15.2366 29.4169 15.2325C25.8225 15.2325 23.2931 17.145 23.2706 19.8806C23.2481 21.9037 25.0763 23.0306 26.4544 23.7056C27.8719 24.3937 28.3481 24.8363 28.3406 25.4513C28.3312 26.3963 27.2119 26.8106 26.1656 26.8275C24.3375 26.8556 23.2781 26.3344 22.4306 25.9406L21.7725 29.0194C22.6219 29.4094 24.1894 29.7506 25.815 29.7656C29.6344 29.7656 32.1338 27.8794 32.1469 24.9581ZM41.6362 29.5463H45L42.0656 15.4913H38.9606C38.6289 15.4882 38.3038 15.5848 38.0277 15.7687C37.7515 15.9526 37.537 16.2152 37.4119 16.5225L31.9575 29.5463H35.775L36.5344 27.4462H41.1994L41.6362 29.5463ZM37.5806 24.5663L39.4931 19.2881L40.5956 24.5663H37.5806ZM22.2806 15.4913L19.275 29.5463H15.6375L18.6469 15.4913H22.2806Z" fill="black"/>
</svg>
