<svg width="25" height="25" viewBox="0 0 25 25" fill="none" xmlns="http://www.w3.org/2000/svg">
<path d="M16.6667 11.4584C18.3959 11.4584 19.7813 10.0625 19.7813 8.33337C19.7813 6.60421 18.3959 5.20837 16.6667 5.20837C14.9375 5.20837 13.5417 6.60421 13.5417 8.33337C13.5417 10.0625 14.9375 11.4584 16.6667 11.4584ZM8.33335 11.4584C10.0625 11.4584 11.4479 10.0625 11.4479 8.33337C11.4479 6.60421 10.0625 5.20837 8.33335 5.20837C6.60419 5.20837 5.20835 6.60421 5.20835 8.33337C5.20835 10.0625 6.60419 11.4584 8.33335 11.4584ZM8.33335 13.5417C5.90627 13.5417 1.04169 14.7605 1.04169 17.1875V19.7917H15.625V17.1875C15.625 14.7605 10.7604 13.5417 8.33335 13.5417ZM16.6667 13.5417C16.3646 13.5417 16.0209 13.5625 15.6563 13.5938C16.8646 14.4688 17.7084 15.6459 17.7084 17.1875V19.7917H23.9584V17.1875C23.9584 14.7605 19.0938 13.5417 16.6667 13.5417Z" fill="white"/>
</svg>
