<svg width="4" height="15" viewBox="0 0 4 15" fill="none" xmlns="http://www.w3.org/2000/svg">
<path d="M2.25 12.5C1.83579 12.5 1.5 12.8358 1.5 13.25C1.5 13.6642 1.83579 14 2.25 14C2.66421 14 3 13.6642 3 13.25C3 12.8358 2.66421 12.5 2.25 12.5Z" stroke="black" stroke-width="1.5" stroke-linecap="round" stroke-linejoin="round"/>
<path d="M2.25 7C1.83579 7 1.5 7.33579 1.5 7.75C1.5 8.16421 1.83579 8.5 2.25 8.5C2.66421 8.5 3 8.16421 3 7.75C3 7.33579 2.66421 7 2.25 7Z" stroke="black" stroke-width="1.5" stroke-linecap="round" stroke-linejoin="round"/>
<path d="M2.25 1.5C1.83579 1.5 1.5 1.83579 1.5 2.25C1.5 2.66421 1.83579 3 2.25 3C2.66421 3 3 2.66421 3 2.25C3 1.83579 2.66421 1.5 2.25 1.5Z" stroke="black" stroke-width="1.5" stroke-linecap="round" stroke-linejoin="round"/>
</svg>
