<svg width="20" height="20" viewBox="0 0 20 20" fill="none" xmlns="http://www.w3.org/2000/svg">
<path d="M7.5 1.875C7.5 1.70924 7.56585 1.55027 7.68306 1.43306C7.80027 1.31585 7.95924 1.25 8.125 1.25C8.29076 1.25 8.44973 1.31585 8.56694 1.43306C8.68415 1.55027 8.75 1.70924 8.75 1.875V17.2413C8.74997 17.3648 8.71335 17.4855 8.64475 17.5882C8.57615 17.6909 8.47865 17.771 8.36457 17.8184C8.25048 17.8657 8.12493 17.8782 8.00375 17.8542C7.88258 17.8303 7.77123 17.771 7.68375 17.6838L1.87375 11.875C1.81555 11.8169 1.76937 11.748 1.73786 11.672C1.70635 11.5961 1.69013 11.5147 1.69013 11.4325C1.69013 11.3503 1.70635 11.2689 1.73786 11.193C1.76937 11.117 1.81555 11.0481 1.87375 10.99H1.87625C1.9934 10.8732 2.15208 10.8076 2.3175 10.8076C2.48292 10.8076 2.6416 10.8732 2.75875 10.99L7.5 15.735V1.875ZM11.25 2.75875C11.2503 2.63534 11.2871 2.51477 11.3558 2.41224C11.4245 2.30971 11.522 2.22982 11.636 2.18263C11.75 2.13544 11.8755 2.12306 11.9965 2.14706C12.1176 2.17107 12.2288 2.23037 12.3162 2.3175L18.1262 8.125C18.1845 8.18306 18.2306 8.25203 18.2621 8.32796C18.2936 8.40389 18.3099 8.48529 18.3099 8.5675C18.3099 8.64971 18.2936 8.73111 18.2621 8.80704C18.2306 8.88297 18.1845 8.95194 18.1262 9.01H18.1237C18.0066 9.12679 17.8479 9.19237 17.6825 9.19237C17.5171 9.19237 17.3584 9.12679 17.2412 9.01L12.5 4.2675V18.125C12.5 18.2908 12.4342 18.4497 12.3169 18.5669C12.1997 18.6842 12.0408 18.75 11.875 18.75C11.7092 18.75 11.5503 18.6842 11.4331 18.5669C11.3158 18.4497 11.25 18.2908 11.25 18.125V2.75875Z" fill="black" fill-opacity="0.7"/>
</svg>
