<svg width="25" height="25" viewBox="0 0 25 25" fill="none" xmlns="http://www.w3.org/2000/svg">
<path d="M19.7917 17.7084V12.2917C19.2708 12.3959 18.75 12.5 18.2292 12.5H17.7083V18.75H7.29167V11.4584C7.29167 8.54171 9.58333 6.25004 12.5 6.25004C12.6042 4.89587 13.2292 3.75004 14.0625 2.81254C13.75 2.39587 13.125 2.08337 12.5 2.08337C11.3542 2.08337 10.4167 3.02087 10.4167 4.16671V4.47921C7.29167 5.41671 5.20833 8.22921 5.20833 11.4584V17.7084L3.125 19.7917V20.8334H21.875V19.7917L19.7917 17.7084ZM10.4167 21.875C10.4167 23.0209 11.3542 23.9584 12.5 23.9584C13.6458 23.9584 14.5833 23.0209 14.5833 21.875H10.4167ZM21.875 6.77087C21.875 8.75004 20.2083 10.4167 18.2292 10.4167C16.25 10.4167 14.5833 8.75004 14.5833 6.77087C14.5833 4.79171 16.25 3.12504 18.2292 3.12504C20.2083 3.12504 21.875 4.79171 21.875 6.77087Z" fill="black"/>
</svg>
