<svg width="38" height="33" viewBox="0 0 38 33" fill="none" xmlns="http://www.w3.org/2000/svg">
<path d="M18.375 0.875V3.42594C17.962 3.49109 17.5457 3.61719 17.125 3.78766V2.125H15.875V4.40313C15.7423 4.47813 15.6092 4.5557 15.4754 4.63594C15.1943 4.80469 14.9105 4.98594 14.625 5.17539V3.375H13.375V6.04609C12.9591 6.34688 12.5419 6.6575 12.125 6.96969V5.875H10.875V7.90352C10.453 8.21664 10.0352 8.5207 9.625 8.80914V7.125H8.375V9.64164C8.29375 9.69219 8.21172 9.74414 8.13164 9.79227C7.78414 10.0009 7.4468 10.1831 7.125 10.3362V9.625H5.875V10.7948C5.64922 10.8471 5.43945 10.875 5.25 10.875H4.625V8.375H0.875V32.125H4.625V12.125H5.25C5.45766 12.125 5.66594 12.107 5.875 12.0741V32.125H7.125V11.7123C7.53687 11.5452 7.95312 11.3357 8.375 11.0969V32.125H9.625V10.3246C10.0386 10.0502 10.456 9.75711 10.875 9.45399V32.125H12.125V20.875H13.375V32.125H14.625V6.69086C15.0517 6.39102 15.4695 6.11063 15.875 5.85836V17.125H17.125V5.16391C17.5776 4.94875 17.9991 4.79242 18.375 4.70531V17.125H19.625V4.70523C20.0009 4.79242 20.4224 4.94875 20.875 5.16383V17.125H22.125V5.85836C22.5305 6.1107 22.9483 6.39102 23.375 6.69086V32.125H24.625V20.875H25.875V32.125H27.125V9.45391C27.544 9.75703 27.9614 10.0502 28.375 10.3246V32.125H29.625V11.0969C30.0469 11.3356 30.4631 11.5453 30.875 11.7123V32.125H32.125V12.0741C32.3341 12.107 32.5423 12.125 32.75 12.125H33.375V32.125H37.125V8.375H33.375V10.875H32.75C32.5605 10.875 32.3508 10.8471 32.125 10.7948V9.625H30.875V10.3361C30.5531 10.183 30.2159 10.0008 29.8684 9.79234C29.7882 9.74414 29.7062 9.69219 29.625 9.64156V7.125H28.375V8.80914C27.9647 8.52086 27.547 8.21664 27.125 7.90352V5.875H25.875V6.96969C25.4581 6.6575 25.0409 6.34703 24.625 6.04602V3.375H23.375V5.17539C23.0895 4.98602 22.8057 4.80461 22.5246 4.63602C22.3924 4.55672 22.2592 4.4791 22.125 4.4032V2.125H20.875V3.78773C20.4543 3.61719 20.038 3.49109 19.625 3.42602V0.875H18.375ZM2.75 3.375C1.70703 3.375 0.875 4.20703 0.875 5.25C0.875 6.29297 1.70703 7.125 2.75 7.125C3.79297 7.125 4.625 6.29297 4.625 5.25C4.625 4.20703 3.79297 3.375 2.75 3.375ZM35.25 3.375C34.207 3.375 33.375 4.20703 33.375 5.25C33.375 6.29297 34.207 7.125 35.25 7.125C36.293 7.125 37.125 6.29297 37.125 5.25C37.125 4.20703 36.293 3.375 35.25 3.375ZM13.375 7.59648V19.625H12.125V8.53031C12.25 8.43672 12.3752 8.34359 12.5 8.25C12.793 8.03047 13.0847 7.81188 13.375 7.59648ZM24.625 7.59648C24.9153 7.81188 25.207 8.03047 25.5 8.25C25.6248 8.34375 25.75 8.43672 25.875 8.53031V19.625H24.625V7.59648ZM15.875 18.375V20.875H22.125V18.375H15.875ZM15.875 22.125V32.125H17.125V22.125H15.875ZM18.375 22.125V32.125H19.625V22.125H18.375ZM20.875 22.125V32.125H22.125V22.125H20.875Z" fill="#0291BF" fill-opacity="0.7"/>
</svg>
