<svg width="22" height="22" viewBox="0 0 22 22" fill="none" xmlns="http://www.w3.org/2000/svg">
<path d="M4.27539 0.790936V3.96263H18.0939V0.790894L4.27539 0.790936ZM5.33887 4.76555V17.1634H6.14187V4.76559L5.33887 4.76555ZM16.2274 4.76555V17.1634H17.0304V4.76559L16.2274 4.76555ZM6.92596 7.28051V17.1633L15.4782 17.1634V7.28059H13.609C13.5782 7.66443 13.2569 7.96539 12.8651 7.96539C12.4732 7.96539 12.1519 7.66443 12.1212 7.28055H11.5049C11.5465 7.41032 11.5693 7.54794 11.5693 7.69146C11.5693 8.43555 10.9653 9.03827 10.2212 9.03827C9.4771 9.03827 8.87434 8.43555 8.87434 7.69146C8.87434 7.54794 8.89732 7.41036 8.93879 7.28055H6.926L6.92596 7.28051ZM12.8597 8.60588C13.8987 8.60588 14.741 9.44819 14.741 10.4871C14.741 11.5261 13.8988 12.3684 12.8598 12.3684C11.8209 12.3684 10.9786 11.5261 10.9786 10.4872C10.9786 9.44824 11.8209 8.60592 12.8598 8.60592L12.8597 8.60588ZM9.36852 9.50023C9.98147 9.50023 10.4777 9.99781 10.4777 10.6107C10.4777 11.2236 9.98143 11.7198 9.36856 11.7198C8.7557 11.7198 8.25812 11.2236 8.25812 10.6107C8.25812 9.99776 8.7557 9.50023 9.36861 9.50023H9.36852ZM12.3146 12.9095C12.9275 12.9095 13.4251 13.4071 13.4251 14.02C13.4251 14.6329 12.9275 15.1292 12.3146 15.1292C11.7017 15.1292 11.2055 14.6329 11.2055 14.02C11.2055 13.4072 11.7018 12.9096 12.3147 12.9096L12.3146 12.9095ZM4.27539 17.9664V21.1393H18.0939V17.9663H4.27539V17.9664Z" fill="#025E7C"/>
</svg>
