<svg width="22" height="22" viewBox="0 0 22 22" fill="none" xmlns="http://www.w3.org/2000/svg">
<path fill-rule="evenodd" clip-rule="evenodd" d="M1.4668 2.2C1.4668 1.61652 1.69858 1.05695 2.11116 0.644365C2.52374 0.231785 3.08332 0 3.6668 0L15.7037 0L20.5335 4.82973V19.8C20.5335 20.3835 20.3017 20.9431 19.8891 21.3556C19.4765 21.7682 18.9169 22 18.3335 22H3.6668C3.08332 22 2.52374 21.7682 2.11116 21.3556C1.69858 20.9431 1.4668 20.3835 1.4668 19.8V2.2ZM5.8668 5.86667H10.2668V7.33333H5.8668V5.86667ZM16.1335 10.2667H5.8668V11.7333H16.1335V10.2667ZM16.1335 14.6667H11.7335V16.1333H16.1335V14.6667Z" fill="#FFF"/>
</svg>
