<svg width="35" height="35" viewBox="0 0 35 35" fill="none" xmlns="http://www.w3.org/2000/svg">
<path d="M23.3333 13.1252C32.0833 13.1252 32.0833 18.9585 32.0833 18.9585V21.8752H23.3333V18.9585C23.3333 18.9585 23.3333 16.4939 21.6562 14.2918C21.4083 13.9564 21.102 13.6356 20.7812 13.3293C21.5395 13.2127 22.3708 13.1252 23.3333 13.1252ZM2.91663 18.9585C2.91663 18.9585 2.91663 13.1252 11.6666 13.1252C20.4166 13.1252 20.4166 18.9585 20.4166 18.9585V21.8752H2.91663V18.9585ZM13.125 24.7918V27.7085H21.875V24.7918L26.25 29.1668L21.875 33.5418V30.6252H13.125V33.5418L8.74996 29.1668L13.125 24.7918ZM11.6666 1.4585C9.24579 1.4585 7.29163 3.41266 7.29163 5.8335C7.29163 8.25433 9.24579 10.2085 11.6666 10.2085C14.0875 10.2085 16.0416 8.25433 16.0416 5.8335C16.0416 3.41266 14.0875 1.4585 11.6666 1.4585ZM23.3333 1.4585C20.9125 1.4585 18.9583 3.41266 18.9583 5.8335C18.9583 8.25433 20.9125 10.2085 23.3333 10.2085C25.7541 10.2085 27.7083 8.25433 27.7083 5.8335C27.7083 3.41266 25.7541 1.4585 23.3333 1.4585Z" fill="black" fill-opacity="0.6"/>
</svg>
