<svg width="35" height="35" viewBox="0 0 35 35" fill="none" xmlns="http://www.w3.org/2000/svg">
<path d="M7.875 10.0625C7.875 9.01821 8.28984 8.01669 9.02827 7.27827C9.76669 6.53984 10.7682 6.125 11.8125 6.125C12.8568 6.125 13.8583 6.53984 14.5967 7.27827C15.3352 8.01669 15.75 9.01821 15.75 10.0625C15.75 11.1068 15.3352 12.1083 14.5967 12.8467C13.8583 13.5852 12.8568 14 11.8125 14C10.7682 14 9.76669 13.5852 9.02827 12.8467C8.28984 12.1083 7.875 11.1068 7.875 10.0625ZM11.8125 4.375C10.3041 4.375 8.85744 4.97422 7.79083 6.04083C6.72422 7.10744 6.125 8.55408 6.125 10.0625C6.125 11.5709 6.72422 13.0176 7.79083 14.0842C8.85744 15.1508 10.3041 15.75 11.8125 15.75C13.3209 15.75 14.7676 15.1508 15.8342 14.0842C16.9008 13.0176 17.5 11.5709 17.5 10.0625C17.5 8.55408 16.9008 7.10744 15.8342 6.04083C14.7676 4.97422 13.3209 4.375 11.8125 4.375ZM2.625 21C2.625 20.0717 2.99375 19.1815 3.65013 18.5251C4.3065 17.8687 5.19674 17.5 6.125 17.5H17.5C18.1094 17.4995 18.7085 17.6582 19.2378 17.9602C18.753 18.3627 18.3085 18.8108 17.9112 19.299C17.7766 19.2665 17.6385 19.2501 17.5 19.25H6.125C5.66087 19.25 5.21575 19.4344 4.88756 19.7626C4.55937 20.0908 4.375 20.5359 4.375 21V21.1365L4.38725 21.2817C4.48207 22.1207 4.78133 22.9235 5.25875 23.6197C6.111 24.8517 7.89775 26.25 11.8125 26.25C13.482 26.25 14.7647 25.9963 15.7535 25.6077C15.7675 26.2203 15.8392 26.8153 15.9635 27.3927C14.8347 27.7725 13.468 28 11.8125 28C7.41475 28 5.04525 26.39 3.8185 24.6155C3.17244 23.6745 2.76961 22.588 2.646 21.4532C2.63554 21.3514 2.62854 21.2493 2.625 21.147V21ZM22.75 11.375C22.75 10.6788 23.0266 10.0111 23.5188 9.51884C24.0111 9.02656 24.6788 8.75 25.375 8.75C26.0712 8.75 26.7389 9.02656 27.2312 9.51884C27.7234 10.0111 28 10.6788 28 11.375C28 12.0712 27.7234 12.7389 27.2312 13.2312C26.7389 13.7234 26.0712 14 25.375 14C24.6788 14 24.0111 13.7234 23.5188 13.2312C23.0266 12.7389 22.75 12.0712 22.75 11.375ZM25.375 7C24.2147 7 23.1019 7.46094 22.2814 8.28141C21.4609 9.10188 21 10.2147 21 11.375C21 12.5353 21.4609 13.6481 22.2814 14.4686C23.1019 15.2891 24.2147 15.75 25.375 15.75C26.5353 15.75 27.6481 15.2891 28.4686 14.4686C29.2891 13.6481 29.75 12.5353 29.75 11.375C29.75 10.2147 29.2891 9.10188 28.4686 8.28141C27.6481 7.46094 26.5353 7 25.375 7ZM17.5 25.375C17.5 27.4636 18.3297 29.4666 19.8065 30.9435C21.2834 32.4203 23.2864 33.25 25.375 33.25C27.4636 33.25 29.4666 32.4203 30.9435 30.9435C32.4203 29.4666 33.25 27.4636 33.25 25.375C33.25 23.2864 32.4203 21.2834 30.9435 19.8065C29.4666 18.3297 27.4636 17.5 25.375 17.5C23.2864 17.5 21.2834 18.3297 19.8065 19.8065C18.3297 21.2834 17.5 23.2864 17.5 25.375ZM28.875 20.125C29.1071 20.125 29.3296 20.2172 29.4937 20.3813C29.6578 20.5454 29.75 20.7679 29.75 21V23.625C29.75 23.8571 29.6578 24.0796 29.4937 24.2437C29.3296 24.4078 29.1071 24.5 28.875 24.5H26.25C26.0179 24.5 25.7954 24.4078 25.6313 24.2437C25.4672 24.0796 25.375 23.8571 25.375 23.625C25.375 23.3929 25.4672 23.1704 25.6313 23.0063C25.7954 22.8422 26.0179 22.75 26.25 22.75H27.069C26.4043 22.3818 25.6379 22.2401 24.8855 22.3461C24.1331 22.4522 23.4357 22.8004 22.8988 23.338C22.7325 23.4908 22.5136 23.5734 22.2879 23.5686C22.0622 23.5637 21.847 23.4718 21.6875 23.312C21.5279 23.1523 21.4363 22.937 21.4318 22.7113C21.4273 22.4855 21.5102 22.2668 21.6632 22.1007C22.4805 21.2839 23.5444 20.7593 24.69 20.6084C25.8356 20.4575 26.9991 20.6886 28 21.266V21C28 20.7679 28.0922 20.5454 28.2563 20.3813C28.4204 20.2172 28.6429 20.125 28.875 20.125ZM27.342 29.806C26.6024 30.1048 25.8045 30.2311 25.0088 30.1753C24.2131 30.1195 23.4406 29.8831 22.75 29.484V29.75C22.75 29.9821 22.6578 30.2046 22.4937 30.3687C22.3296 30.5328 22.1071 30.625 21.875 30.625C21.6429 30.625 21.4204 30.5328 21.2563 30.3687C21.0922 30.2046 21 29.9821 21 29.75V27.125C21 26.8929 21.0922 26.6704 21.2563 26.5063C21.4204 26.3422 21.6429 26.25 21.875 26.25H24.5C24.7321 26.25 24.9546 26.3422 25.1187 26.5063C25.2828 26.6704 25.375 26.8929 25.375 27.125C25.375 27.3571 25.2828 27.5796 25.1187 27.7437C24.9546 27.9078 24.7321 28 24.5 28H23.681C24.3457 28.3682 25.1121 28.5099 25.8645 28.4039C26.6169 28.2978 27.3143 27.9496 27.8512 27.412C28.0175 27.2592 28.2364 27.1766 28.4621 27.1814C28.6878 27.1863 28.903 27.2782 29.0625 27.438C29.2221 27.5977 29.3137 27.813 29.3182 28.0387C29.3227 28.2645 29.2398 28.4832 29.0868 28.6493C28.5898 29.148 27.9947 29.5435 27.342 29.806Z" fill="black" fill-opacity="0.6"/>
</svg>
