<svg width="35" height="35" viewBox="0 0 35 35" fill="none" xmlns="http://www.w3.org/2000/svg">
<path d="M23.3334 16.0415C25.7542 16.0415 27.6938 14.0873 27.6938 11.6665C27.6938 9.24567 25.7542 7.2915 23.3334 7.2915C20.9125 7.2915 18.9584 9.24567 18.9584 11.6665C18.9584 14.0873 20.9125 16.0415 23.3334 16.0415ZM11.6667 16.0415C14.0875 16.0415 16.0271 14.0873 16.0271 11.6665C16.0271 9.24567 14.0875 7.2915 11.6667 7.2915C9.24587 7.2915 7.29171 9.24567 7.29171 11.6665C7.29171 14.0873 9.24587 16.0415 11.6667 16.0415ZM11.6667 18.9582C8.26879 18.9582 1.45837 20.6644 1.45837 24.0623V27.7082H21.875V24.0623C21.875 20.6644 15.0646 18.9582 11.6667 18.9582ZM23.3334 18.9582C22.9105 18.9582 22.4292 18.9873 21.9188 19.0311C23.6105 20.2561 24.7917 21.904 24.7917 24.0623V27.7082H33.5417V24.0623C33.5417 20.6644 26.7313 18.9582 23.3334 18.9582Z" fill="black" fill-opacity="0.6"/>
</svg>
