<svg width="35" height="35" viewBox="0 0 35 35" fill="none" xmlns="http://www.w3.org/2000/svg">
<path d="M7.875 10.0625C7.875 9.01821 8.28984 8.01669 9.02827 7.27827C9.76669 6.53984 10.7682 6.125 11.8125 6.125C12.8568 6.125 13.8583 6.53984 14.5967 7.27827C15.3352 8.01669 15.75 9.01821 15.75 10.0625C15.75 11.1068 15.3352 12.1083 14.5967 12.8467C13.8583 13.5852 12.8568 14 11.8125 14C10.7682 14 9.76669 13.5852 9.02827 12.8467C8.28984 12.1083 7.875 11.1068 7.875 10.0625ZM11.8125 4.375C10.3041 4.375 8.85744 4.97422 7.79083 6.04083C6.72422 7.10744 6.125 8.55408 6.125 10.0625C6.125 11.5709 6.72422 13.0176 7.79083 14.0842C8.85744 15.1508 10.3041 15.75 11.8125 15.75C13.3209 15.75 14.7676 15.1508 15.8342 14.0842C16.9008 13.0176 17.5 11.5709 17.5 10.0625C17.5 8.55408 16.9008 7.10744 15.8342 6.04083C14.7676 4.97422 13.3209 4.375 11.8125 4.375ZM2.625 21C2.625 20.0717 2.99375 19.1815 3.65013 18.5251C4.3065 17.8687 5.19674 17.5 6.125 17.5H17.5C18.1094 17.4995 18.7085 17.6582 19.2378 17.9602C18.753 18.3627 18.3085 18.8108 17.9112 19.299C17.7766 19.2665 17.6385 19.2501 17.5 19.25H6.125C5.66087 19.25 5.21575 19.4344 4.88756 19.7626C4.55937 20.0908 4.375 20.5359 4.375 21V21.1365L4.38725 21.2817C4.48207 22.1207 4.78133 22.9235 5.25875 23.6197C6.111 24.8517 7.89775 26.25 11.8125 26.25C13.482 26.25 14.7647 25.9963 15.7535 25.6077C15.7675 26.2203 15.8392 26.8153 15.9635 27.3927C14.8347 27.7725 13.468 28 11.8125 28C7.41475 28 5.04525 26.39 3.8185 24.6155C3.17244 23.6745 2.76961 22.588 2.646 21.4532C2.63554 21.3514 2.62854 21.2493 2.625 21.147V21ZM22.75 11.375C22.75 10.6788 23.0266 10.0111 23.5188 9.51884C24.0111 9.02656 24.6788 8.75 25.375 8.75C26.0712 8.75 26.7389 9.02656 27.2312 9.51884C27.7234 10.0111 28 10.6788 28 11.375C28 12.0712 27.7234 12.7389 27.2312 13.2312C26.7389 13.7234 26.0712 14 25.375 14C24.6788 14 24.0111 13.7234 23.5188 13.2312C23.0266 12.7389 22.75 12.0712 22.75 11.375ZM25.375 7C24.2147 7 23.1019 7.46094 22.2814 8.28141C21.4609 9.10188 21 10.2147 21 11.375C21 12.5353 21.4609 13.6481 22.2814 14.4686C23.1019 15.2891 24.2147 15.75 25.375 15.75C26.5353 15.75 27.6481 15.2891 28.4686 14.4686C29.2891 13.6481 29.75 12.5353 29.75 11.375C29.75 10.2147 29.2891 9.10188 28.4686 8.28141C27.6481 7.46094 26.5353 7 25.375 7ZM33.25 25.375C33.25 27.4636 32.4203 29.4666 30.9435 30.9435C29.4666 32.4203 27.4636 33.25 25.375 33.25C23.2864 33.25 21.2834 32.4203 19.8065 30.9435C18.3297 29.4666 17.5 27.4636 17.5 25.375C17.5 23.2864 18.3297 21.2834 19.8065 19.8065C21.2834 18.3297 23.2864 17.5 25.375 17.5C27.4636 17.5 29.4666 18.3297 30.9435 19.8065C32.4203 21.2834 33.25 23.2864 33.25 25.375ZM25.375 21C25.1429 21 24.9204 21.0922 24.7563 21.2563C24.5922 21.4204 24.5 21.6429 24.5 21.875V25.375C24.5 25.6071 24.5922 25.8296 24.7563 25.9937C24.9204 26.1578 25.1429 26.25 25.375 26.25C25.6071 26.25 25.8296 26.1578 25.9937 25.9937C26.1578 25.8296 26.25 25.6071 26.25 25.375V21.875C26.25 21.6429 26.1578 21.4204 25.9937 21.2563C25.8296 21.0922 25.6071 21 25.375 21ZM25.375 29.9688C25.6651 29.9688 25.9433 29.8535 26.1484 29.6484C26.3535 29.4433 26.4688 29.1651 26.4688 28.875C26.4688 28.5849 26.3535 28.3067 26.1484 28.1016C25.9433 27.8965 25.6651 27.7812 25.375 27.7812C25.0849 27.7812 24.8067 27.8965 24.6016 28.1016C24.3965 28.3067 24.2812 28.5849 24.2812 28.875C24.2812 29.1651 24.3965 29.4433 24.6016 29.6484C24.8067 29.8535 25.0849 29.9688 25.375 29.9688Z" fill="black" fill-opacity="0.6"/>
</svg>
