<svg width="24" height="24" viewBox="0 0 24 24" fill="none" xmlns="http://www.w3.org/2000/svg">
<path d="M20.7633 11.4914C20.8477 11.2102 20.8898 10.9195 20.8898 10.6242C20.8898 9.96093 20.6719 9.32343 20.2781 8.80312C20.3625 8.52187 20.4047 8.23125 20.4047 7.93593C20.4047 7.27265 20.1867 6.63515 19.793 6.11484C19.8773 5.83359 19.9195 5.54296 19.9195 5.24765C19.9195 4.03828 19.2 2.94843 18.0844 2.47265C17.8883 2.38811 17.6768 2.34502 17.4633 2.34609H3.375C2.96016 2.34609 2.625 2.68125 2.625 3.09609V11.6273C2.625 12.0422 2.96016 12.3773 3.375 12.3773H6.40547L8.41641 19.6617C8.73984 20.8359 9.81797 21.6562 11.0367 21.6562C11.7328 21.6562 12.382 21.3797 12.8625 20.8734C13.343 20.3695 13.5891 19.7086 13.5539 19.0125L13.4133 16.132H19.0359C19.3195 16.132 19.5961 16.057 19.8398 15.9141C20.7867 15.3633 21.375 14.3648 21.375 13.3125C21.375 12.6492 21.157 12.0117 20.7633 11.4914ZM4.3125 10.6875V4.03125H6.21094V10.6875H4.3125ZM19.0125 14.4469H11.6437L11.8687 19.0969C11.8828 19.3758 11.7586 19.6383 11.5266 19.8117C11.3836 19.9172 11.2078 19.9711 11.032 19.9687C10.8075 19.9666 10.5896 19.8916 10.4113 19.7551C10.233 19.6186 10.1037 19.4279 10.043 19.2117L7.71094 10.7625V4.03125H17.4469C17.6811 4.13624 17.8801 4.30667 18.0198 4.52205C18.1595 4.73743 18.234 4.98859 18.2344 5.24531C18.2344 5.47265 18.1805 5.68828 18.0727 5.88515L17.7469 6.48046L18.2602 6.92578C18.4046 7.0509 18.5204 7.20569 18.5997 7.3796C18.679 7.55351 18.7199 7.74246 18.7195 7.93359C18.7195 8.16093 18.6656 8.37656 18.5578 8.57343L18.232 9.16875L18.7453 9.61406C18.8898 9.73918 19.0056 9.89397 19.0849 10.0679C19.1641 10.2418 19.205 10.4307 19.2047 10.6219C19.2047 10.8492 19.1508 11.0648 19.043 11.2617L18.7148 11.8594L19.2281 12.3047C19.3726 12.4298 19.4884 12.5846 19.5677 12.7585C19.647 12.9324 19.6878 13.1214 19.6875 13.3125C19.6875 13.7602 19.4297 14.1914 19.0125 14.4469Z" fill="#D4382E"/>
</svg>
