<svg width="27" height="29" viewBox="0 0 27 29" fill="none" xmlns="http://www.w3.org/2000/svg">
<path d="M15.8475 1.1895C16.5755 0.6645 17.4225 0.5 18 0.5H20.5305C21.3232 0.499934 22.1011 0.715272 22.781 1.123L25.9012 2.9955C26.1601 3.15101 26.3743 3.37086 26.523 3.63366C26.6717 3.89647 26.7499 4.19328 26.75 4.49525V6.625C26.75 7.32119 26.4734 7.98887 25.9811 8.48116C25.4889 8.97344 24.8212 9.25 24.125 9.25H23.25V23.3165C23.9867 23.4303 24.7252 23.705 25.3412 24.2178C26.2337 24.9598 26.75 26.1025 26.75 27.625C26.75 27.8571 26.6578 28.0796 26.4937 28.2437C26.3296 28.4078 26.107 28.5 25.875 28.5H5.74998C4.64854 28.5001 3.57497 28.1538 2.6812 27.5101C1.78744 26.8664 1.11876 25.9579 0.769818 24.9132C0.420875 23.8685 0.409341 22.7406 0.736848 21.6889C1.06436 20.6373 1.71431 19.7153 2.59473 19.0535C2.78048 18.9195 3.01137 18.8637 3.23782 18.898C3.46427 18.9323 3.66824 19.0541 3.80592 19.2371C3.9436 19.4202 4.00402 19.6499 3.97421 19.877C3.9444 20.1041 3.82674 20.3104 3.64648 20.4517C3.05929 20.8929 2.62576 21.5076 2.40727 22.2088C2.18878 22.91 2.19641 23.6621 2.42906 24.3587C2.66172 25.0553 3.10762 25.6611 3.70363 26.0903C4.29963 26.5194 5.01554 26.7502 5.74998 26.75C6.25398 26.75 6.57248 26.6275 6.78248 26.4875C6.9901 26.3443 7.15614 26.1486 7.26373 25.9205C7.40429 25.6329 7.48468 25.3197 7.49998 25V24.9212L7.50698 24.7288C7.56501 23.7158 7.71734 22.7104 7.96198 21.7257C8.42223 19.8883 9.35498 17.5327 11.2555 15.6305C14.4825 12.4052 14.5 8.07925 14.5 6.625V4C14.5 2.66475 15.0775 1.746 15.8475 1.1895ZM16.117 9.075C15.8457 11.273 15.0162 14.346 12.4945 16.8695C10.895 18.4673 10.0777 20.4867 9.66123 22.1493C9.44424 23.0209 9.30833 23.9108 9.25523 24.8075C9.25288 24.8582 9.25113 24.909 9.24998 24.9598V25.0578L9.24298 25.175C9.20429 25.724 9.0555 26.2597 8.80548 26.75H19.6082C19.4332 26.19 19.078 25.6142 18.4672 25.294C18.0506 25.0875 17.5897 24.9866 17.125 25H15.375C15.1429 25 14.9204 24.9078 14.7563 24.7437C14.5922 24.5796 14.5 24.3571 14.5 24.125C14.5 23.8929 14.5922 23.6704 14.7563 23.5063C14.9204 23.3422 15.1429 23.25 15.375 23.25H17.125C17.433 23.25 17.7235 23.2745 18 23.32V18.875C18 18.6429 18.0922 18.4204 18.2563 18.2563C18.4204 18.0922 18.6429 18 18.875 18C19.107 18 19.3296 18.0922 19.4937 18.2563C19.6578 18.4204 19.75 18.6429 19.75 18.875V24.034C20.765 24.7655 21.2322 25.854 21.409 26.75H24.909C24.7777 26.176 24.5152 25.8068 24.2212 25.5635C23.7715 25.1873 23.1187 25 22.375 25C22.1429 25 21.9204 24.9078 21.7563 24.7437C21.5922 24.5796 21.5 24.3571 21.5 24.125V8.375C21.5 8.14294 21.5922 7.92038 21.7563 7.75628C21.9204 7.59219 22.1429 7.5 22.375 7.5H24.125C24.357 7.5 24.5796 7.40781 24.7437 7.24372C24.9078 7.07962 25 6.85706 25 6.625V4.49525L21.8815 2.62275C21.4733 2.37836 21.0063 2.24952 20.5305 2.25H18C17.7025 2.25 17.237 2.34625 16.8712 2.6105C16.5475 2.8415 16.25 3.23525 16.25 4V6.625C16.25 6.77725 16.3025 7.024 16.4355 7.20775C16.5352 7.34775 16.7102 7.5 17.125 7.5C17.5397 7.5 17.7147 7.346 17.8145 7.20775C17.931 7.03535 17.9954 6.83303 18 6.625C18 6.39294 18.0922 6.17038 18.2563 6.00628C18.4204 5.84219 18.6429 5.75 18.875 5.75C19.107 5.75 19.3296 5.84219 19.4937 6.00628C19.6578 6.17038 19.75 6.39294 19.75 6.625C19.75 7.05725 19.6275 7.6855 19.2355 8.22975C18.8102 8.8195 18.1102 9.25 17.125 9.25C16.7811 9.25328 16.4396 9.19398 16.117 9.075Z" fill="black" fill-opacity="0.43"/>
</svg>
