<svg width="35" height="35" viewBox="0 0 35 35" fill="none" xmlns="http://www.w3.org/2000/svg">
<path d="M23.3334 16.0416C25.7542 16.0416 27.6938 14.0875 27.6938 11.6666C27.6938 9.24579 25.7542 7.29163 23.3334 7.29163C20.9125 7.29163 18.9584 9.24579 18.9584 11.6666C18.9584 14.0875 20.9125 16.0416 23.3334 16.0416ZM11.6667 16.0416C14.0875 16.0416 16.0271 14.0875 16.0271 11.6666C16.0271 9.24579 14.0875 7.29163 11.6667 7.29163C9.24587 7.29163 7.29171 9.24579 7.29171 11.6666C7.29171 14.0875 9.24587 16.0416 11.6667 16.0416ZM11.6667 18.9583C8.26879 18.9583 1.45837 20.6645 1.45837 24.0625V27.7083H21.875V24.0625C21.875 20.6645 15.0646 18.9583 11.6667 18.9583ZM23.3334 18.9583C22.9105 18.9583 22.4292 18.9875 21.9188 19.0312C23.6105 20.2562 24.7917 21.9041 24.7917 24.0625V27.7083H33.5417V24.0625C33.5417 20.6645 26.7313 18.9583 23.3334 18.9583Z" fill="#0291BF"/>
</svg>
