<svg width="32" height="30" viewBox="0 0 32 30" fill="none" xmlns="http://www.w3.org/2000/svg">
<path d="M5.875 6.0625C5.875 5.01821 6.28984 4.01669 7.02827 3.27827C7.76669 2.53984 8.76821 2.125 9.8125 2.125C10.8568 2.125 11.8583 2.53984 12.5967 3.27827C13.3352 4.01669 13.75 5.01821 13.75 6.0625C13.75 7.10679 13.3352 8.10831 12.5967 8.84673C11.8583 9.58516 10.8568 10 9.8125 10C8.76821 10 7.76669 9.58516 7.02827 8.84673C6.28984 8.10831 5.875 7.10679 5.875 6.0625ZM9.8125 0.375C8.30408 0.375 6.85744 0.974217 5.79083 2.04083C4.72422 3.10744 4.125 4.55408 4.125 6.0625C4.125 7.57092 4.72422 9.01756 5.79083 10.0842C6.85744 11.1508 8.30408 11.75 9.8125 11.75C11.3209 11.75 12.7676 11.1508 13.8342 10.0842C14.9008 9.01756 15.5 7.57092 15.5 6.0625C15.5 4.55408 14.9008 3.10744 13.8342 2.04083C12.7676 0.974217 11.3209 0.375 9.8125 0.375ZM0.625 17C0.625 16.0717 0.993749 15.1815 1.65013 14.5251C2.3065 13.8687 3.19674 13.5 4.125 13.5H15.5C16.1094 13.4995 16.7085 13.6582 17.2378 13.9602C16.753 14.3627 16.3085 14.8108 15.9112 15.299C15.7766 15.2665 15.6385 15.2501 15.5 15.25H4.125C3.66087 15.25 3.21575 15.4344 2.88756 15.7626C2.55937 16.0908 2.375 16.5359 2.375 17V17.1365L2.38725 17.2817C2.48207 18.1207 2.78133 18.9235 3.25875 19.6197C4.111 20.8517 5.89775 22.25 9.8125 22.25C11.482 22.25 12.7647 21.9963 13.7535 21.6077C13.7675 22.2203 13.8392 22.8153 13.9635 23.3927C12.8347 23.7725 11.468 24 9.8125 24C5.41475 24 3.04525 22.39 1.8185 20.6155C1.17244 19.6745 0.769607 18.588 0.646 17.4532C0.635543 17.3514 0.628539 17.2493 0.625 17.147V17ZM20.75 7.375C20.75 6.67881 21.0266 6.01113 21.5188 5.51884C22.0111 5.02656 22.6788 4.75 23.375 4.75C24.0712 4.75 24.7389 5.02656 25.2312 5.51884C25.7234 6.01113 26 6.67881 26 7.375C26 8.07119 25.7234 8.73887 25.2312 9.23116C24.7389 9.72344 24.0712 10 23.375 10C22.6788 10 22.0111 9.72344 21.5188 9.23116C21.0266 8.73887 20.75 8.07119 20.75 7.375ZM23.375 3C22.2147 3 21.1019 3.46094 20.2814 4.28141C19.4609 5.10188 19 6.21468 19 7.375C19 8.53532 19.4609 9.64812 20.2814 10.4686C21.1019 11.2891 22.2147 11.75 23.375 11.75C24.5353 11.75 25.6481 11.2891 26.4686 10.4686C27.2891 9.64812 27.75 8.53532 27.75 7.375C27.75 6.21468 27.2891 5.10188 26.4686 4.28141C25.6481 3.46094 24.5353 3 23.375 3ZM31.25 21.375C31.25 23.4636 30.4203 25.4666 28.9435 26.9435C27.4666 28.4203 25.4636 29.25 23.375 29.25C21.2864 29.25 19.2834 28.4203 17.8065 26.9435C16.3297 25.4666 15.5 23.4636 15.5 21.375C15.5 19.2864 16.3297 17.2834 17.8065 15.8065C19.2834 14.3297 21.2864 13.5 23.375 13.5C25.4636 13.5 27.4666 14.3297 28.9435 15.8065C30.4203 17.2834 31.25 19.2864 31.25 21.375ZM23.375 17C23.1429 17 22.9204 17.0922 22.7563 17.2563C22.5922 17.4204 22.5 17.6429 22.5 17.875V21.375C22.5 21.6071 22.5922 21.8296 22.7563 21.9937C22.9204 22.1578 23.1429 22.25 23.375 22.25C23.6071 22.25 23.8296 22.1578 23.9937 21.9937C24.1578 21.8296 24.25 21.6071 24.25 21.375V17.875C24.25 17.6429 24.1578 17.4204 23.9937 17.2563C23.8296 17.0922 23.6071 17 23.375 17ZM23.375 25.9688C23.6651 25.9688 23.9433 25.8535 24.1484 25.6484C24.3535 25.4433 24.4688 25.1651 24.4688 24.875C24.4688 24.5849 24.3535 24.3067 24.1484 24.1016C23.9433 23.8965 23.6651 23.7812 23.375 23.7812C23.0849 23.7812 22.8067 23.8965 22.6016 24.1016C22.3965 24.3067 22.2812 24.5849 22.2812 24.875C22.2812 25.1651 22.3965 25.4433 22.6016 25.6484C22.8067 25.8535 23.0849 25.9688 23.375 25.9688Z" fill="white"/>
</svg>
