<svg width="25" height="25" viewBox="0 0 25 25" fill="none" xmlns="http://www.w3.org/2000/svg">
<path d="M2.95117 19.0024C2.95117 19.0059 2.95117 19.0122 2.94727 19.021C2.94873 19.0151 2.94971 19.0088 2.95117 19.0024ZM21.4795 19.8047C21.3187 19.8012 21.16 19.7681 21.0112 19.707L18.2388 18.7241L18.2183 18.7158C18.1578 18.6906 18.0928 18.678 18.0273 18.6787C17.967 18.6788 17.9071 18.6897 17.8506 18.7109C17.7832 18.7363 17.1763 18.9644 16.5396 19.1392C16.1943 19.2339 14.9927 19.543 14.0283 19.543C11.5635 19.543 9.25879 18.5957 7.53955 16.8755C6.69966 16.0408 6.03368 15.0477 5.58017 13.9539C5.12665 12.86 4.89461 11.6871 4.89746 10.5029C4.89744 9.88594 4.96391 9.27073 5.0957 8.66797C5.5249 6.68458 6.66162 4.88038 8.29639 3.58985C9.97332 2.27444 12.0435 1.56047 14.1748 1.5625C16.7241 1.5625 19.0996 2.53907 20.8643 4.30567C22.5322 5.97901 23.4463 8.1792 23.439 10.5005C23.4375 12.2254 22.9225 13.9108 21.9595 15.3418L21.9502 15.3555L21.9141 15.4043C21.9058 15.4155 21.8975 15.4263 21.8896 15.4375L21.8823 15.4507C21.8629 15.4837 21.8453 15.5178 21.8296 15.5527L22.5981 18.2842C22.6321 18.3969 22.6505 18.5137 22.6528 18.6314C22.653 18.7855 22.6228 18.9382 22.5639 19.0806C22.505 19.223 22.4186 19.3525 22.3096 19.4615C22.2006 19.5705 22.0712 19.6569 21.9287 19.7158C21.7863 19.7747 21.6336 19.8049 21.4795 19.8047Z" fill="#025E7C"/>
<path d="M14.6421 20.771C14.5917 20.6729 14.5207 20.5868 14.434 20.5185C14.3473 20.4503 14.2469 20.4015 14.1397 20.3755C13.8574 20.3008 13.5283 20.3135 13.2769 20.2949C10.9025 20.1298 8.66821 19.1108 6.98684 17.4263C5.49209 15.9399 4.52065 14.0081 4.21877 11.9219C4.15041 11.4463 4.15041 11.3281 4.15041 11.3281C4.15038 11.1695 4.10204 11.0145 4.01181 10.884C3.92158 10.7535 3.79374 10.6535 3.64531 10.5975C3.49688 10.5414 3.33488 10.5318 3.18088 10.5701C3.02689 10.6083 2.88818 10.6925 2.78323 10.8115C2.78323 10.8115 2.39846 11.2305 2.21682 11.6509C1.70739 12.8247 1.49014 14.1044 1.58368 15.3806C1.67723 16.6567 2.07878 17.8911 2.75393 18.978C2.88088 19.1895 2.88088 19.2871 2.85256 19.5068C2.71926 20.1958 2.48586 21.4111 2.36428 22.0415C2.32403 22.2459 2.339 22.4574 2.40766 22.6541C2.47632 22.8508 2.59619 23.0257 2.75491 23.1607L2.77737 23.1797C2.98733 23.3465 3.24752 23.4373 3.51565 23.4375C3.66646 23.4376 3.81581 23.4079 3.9551 23.3501L6.56789 22.3418C6.65785 22.3076 6.75723 22.3076 6.84719 22.3418C7.876 22.7246 8.9468 22.9277 9.96145 22.9277C11.2257 22.9289 12.4746 22.6512 13.6192 22.1143C13.8858 21.9893 14.3028 21.8535 14.5469 21.5713C14.6393 21.4618 14.6976 21.3277 14.7145 21.1854C14.7314 21.0432 14.7062 20.8991 14.6421 20.771Z" fill="#025E7C"/>
</svg>
