<svg width="25" height="25" viewBox="0 0 25 25" fill="none" xmlns="http://www.w3.org/2000/svg">
<path d="M5.625 7.1875C5.625 6.44158 5.92132 5.72621 6.44876 5.19876C6.97621 4.67132 7.69158 4.375 8.4375 4.375C9.18342 4.375 9.89879 4.67132 10.4262 5.19876C10.9537 5.72621 11.25 6.44158 11.25 7.1875C11.25 7.93342 10.9537 8.64879 10.4262 9.17624C9.89879 9.70368 9.18342 10 8.4375 10C7.69158 10 6.97621 9.70368 6.44876 9.17624C5.92132 8.64879 5.625 7.93342 5.625 7.1875ZM8.4375 3.125C7.36006 3.125 6.32675 3.55301 5.56488 4.31488C4.80301 5.07675 4.375 6.11006 4.375 7.1875C4.375 8.26494 4.80301 9.29825 5.56488 10.0601C6.32675 10.822 7.36006 11.25 8.4375 11.25C9.51494 11.25 10.5483 10.822 11.3101 10.0601C12.072 9.29825 12.5 8.26494 12.5 7.1875C12.5 6.11006 12.072 5.07675 11.3101 4.31488C10.5483 3.55301 9.51494 3.125 8.4375 3.125ZM1.875 15C1.875 14.337 2.13839 13.7011 2.60723 13.2322C3.07607 12.7634 3.71196 12.5 4.375 12.5H12.5C12.9353 12.4996 13.3632 12.613 13.7413 12.8287C13.395 13.1162 13.0775 13.4362 12.7937 13.785C12.6976 13.7618 12.599 13.7501 12.5 13.75H4.375C4.04348 13.75 3.72554 13.8817 3.49112 14.1161C3.2567 14.3505 3.125 14.6685 3.125 15V15.0975L3.13375 15.2013C3.20148 15.8005 3.41523 16.3739 3.75625 16.8713C4.365 17.7512 5.64125 18.75 8.4375 18.75C9.63 18.75 10.5462 18.5688 11.2525 18.2913C11.2625 18.7288 11.3137 19.1537 11.4025 19.5662C10.5962 19.8375 9.62 20 8.4375 20C5.29625 20 3.60375 18.85 2.7275 17.5825C2.26603 16.9103 1.97829 16.1343 1.89 15.3237C1.88253 15.251 1.87753 15.1781 1.875 15.105V15ZM16.25 8.125C16.25 7.62772 16.4475 7.15081 16.7992 6.79917C17.1508 6.44754 17.6277 6.25 18.125 6.25C18.6223 6.25 19.0992 6.44754 19.4508 6.79917C19.8025 7.15081 20 7.62772 20 8.125C20 8.62228 19.8025 9.09919 19.4508 9.45083C19.0992 9.80246 18.6223 10 18.125 10C17.6277 10 17.1508 9.80246 16.7992 9.45083C16.4475 9.09919 16.25 8.62228 16.25 8.125ZM18.125 5C17.2962 5 16.5013 5.32924 15.9153 5.91529C15.3292 6.50134 15 7.2962 15 8.125C15 8.9538 15.3292 9.74866 15.9153 10.3347C16.5013 10.9208 17.2962 11.25 18.125 11.25C18.9538 11.25 19.7487 10.9208 20.3347 10.3347C20.9208 9.74866 21.25 8.9538 21.25 8.125C21.25 7.2962 20.9208 6.50134 20.3347 5.91529C19.7487 5.32924 18.9538 5 18.125 5ZM12.5 18.125C12.5 19.6168 13.0926 21.0476 14.1475 22.1025C15.2024 23.1574 16.6332 23.75 18.125 23.75C19.6168 23.75 21.0476 23.1574 22.1025 22.1025C23.1574 21.0476 23.75 19.6168 23.75 18.125C23.75 16.6332 23.1574 15.2024 22.1025 14.1475C21.0476 13.0926 19.6168 12.5 18.125 12.5C16.6332 12.5 15.2024 13.0926 14.1475 14.1475C13.0926 15.2024 12.5 16.6332 12.5 18.125ZM20.625 14.375C20.7908 14.375 20.9497 14.4408 21.0669 14.5581C21.1842 14.6753 21.25 14.8342 21.25 15V16.875C21.25 17.0408 21.1842 17.1997 21.0669 17.3169C20.9497 17.4342 20.7908 17.5 20.625 17.5H18.75C18.5842 17.5 18.4253 17.4342 18.3081 17.3169C18.1908 17.1997 18.125 17.0408 18.125 16.875C18.125 16.7092 18.1908 16.5503 18.3081 16.4331C18.4253 16.3158 18.5842 16.25 18.75 16.25H19.335C18.8602 15.987 18.3128 15.8858 17.7753 15.9615C17.2379 16.0373 16.7398 16.286 16.3562 16.67C16.2375 16.7791 16.0812 16.8381 15.9199 16.8347C15.7587 16.8312 15.605 16.7656 15.4911 16.6515C15.3771 16.5373 15.3117 16.3836 15.3084 16.2223C15.3052 16.0611 15.3644 15.9048 15.4737 15.7862C16.0575 15.2028 16.8174 14.8281 17.6357 14.7203C18.454 14.6125 19.285 14.7776 20 15.19V15C20 14.8342 20.0658 14.6753 20.1831 14.5581C20.3003 14.4408 20.4592 14.375 20.625 14.375ZM19.53 21.29C19.0017 21.5034 18.4318 21.5937 17.8634 21.5538C17.2951 21.5139 16.7433 21.3451 16.25 21.06V21.25C16.25 21.4158 16.1842 21.5747 16.0669 21.6919C15.9497 21.8092 15.7908 21.875 15.625 21.875C15.4592 21.875 15.3003 21.8092 15.1831 21.6919C15.0658 21.5747 15 21.4158 15 21.25V19.375C15 19.2092 15.0658 19.0503 15.1831 18.9331C15.3003 18.8158 15.4592 18.75 15.625 18.75H17.5C17.6658 18.75 17.8247 18.8158 17.9419 18.9331C18.0592 19.0503 18.125 19.2092 18.125 19.375C18.125 19.5408 18.0592 19.6997 17.9419 19.8169C17.8247 19.9342 17.6658 20 17.5 20H16.915C17.3898 20.263 17.9372 20.3642 18.4747 20.2885C19.0121 20.2127 19.5102 19.964 19.8937 19.58C20.0125 19.4709 20.1688 19.4119 20.3301 19.4153C20.4913 19.4188 20.645 19.4844 20.7589 19.5985C20.8729 19.7127 20.9383 19.8664 20.9416 20.0277C20.9448 20.1889 20.8856 20.3452 20.7763 20.4638C20.4213 20.82 19.9963 21.1025 19.53 21.29Z" fill="white"/>
</svg>
