<svg width="24" height="24" viewBox="0 0 24 24" fill="none" xmlns="http://www.w3.org/2000/svg">
<path d="M3.23672 12.5086C3.15234 12.7898 3.11016 13.0805 3.11016 13.3758C3.11016 14.0391 3.32812 14.6766 3.72187 15.1969C3.6375 15.4781 3.59531 15.7688 3.59531 16.0641C3.59531 16.7273 3.81328 17.3648 4.20703 17.8852C4.12266 18.1664 4.08047 18.457 4.08047 18.7523C4.08047 19.9617 4.8 21.0516 5.91563 21.5273C6.11172 21.6119 6.32318 21.655 6.53672 21.6539L20.625 21.6539C21.0398 21.6539 21.375 21.3188 21.375 20.9039V12.3727C21.375 11.9578 21.0398 11.6227 20.625 11.6227H17.5945L15.5836 4.33829C15.2602 3.16407 14.182 2.34376 12.9633 2.34376C12.2672 2.34376 11.618 2.62032 11.1375 3.12657C10.657 3.63047 10.4109 4.29141 10.4461 4.9875L10.5867 7.86797H4.96406C4.68047 7.86797 4.40391 7.94297 4.16016 8.08594C3.21328 8.63672 2.625 9.63516 2.625 10.6875C2.625 11.3508 2.84297 11.9883 3.23672 12.5086ZM19.6875 13.3125V19.9688H17.7891V13.3125H19.6875ZM4.9875 9.55313H12.3563L12.1313 4.90313C12.1172 4.62422 12.2414 4.36172 12.4734 4.18829C12.6164 4.08282 12.7922 4.02891 12.968 4.03126C13.1925 4.03343 13.4104 4.1084 13.5887 4.2449C13.767 4.3814 13.8963 4.57207 13.957 4.78829L16.2891 13.2375V19.9688H6.55312C6.31885 19.8638 6.1199 19.6933 5.98019 19.4779C5.84049 19.2626 5.76598 19.0114 5.76562 18.7547C5.76562 18.5273 5.81953 18.3117 5.92734 18.1148L6.25312 17.5195L5.73984 17.0742C5.59537 16.9491 5.47956 16.7943 5.40029 16.6204C5.32102 16.4465 5.28015 16.2575 5.28047 16.0664C5.28047 15.8391 5.33438 15.6234 5.44219 15.4266L5.76797 14.8313L5.25469 14.3859C5.11022 14.2608 4.9944 14.106 4.91513 13.9321C4.83586 13.7582 4.79499 13.5693 4.79531 13.3781C4.79531 13.1508 4.84922 12.9352 4.95703 12.7383L5.28516 12.1406L4.77187 11.6953C4.6274 11.5702 4.51159 11.4154 4.43232 11.2415C4.35305 11.0676 4.31218 10.8786 4.3125 10.6875C4.3125 10.2398 4.57031 9.8086 4.9875 9.55313Z" fill="#009F10"/>
</svg>
