<svg width="24" height="24" viewBox="0 0 24 24" fill="none" xmlns="http://www.w3.org/2000/svg">
<path fill-rule="evenodd" clip-rule="evenodd" d="M12 21.1886L12.7212 20.376C13.5395 19.4389 14.2755 18.5497 14.9303 17.704L15.4709 16.9909C17.728 13.9497 18.8572 11.536 18.8572 9.752C18.8572 5.944 15.7875 2.85715 12 2.85715C8.2126 2.85715 5.14288 5.944 5.14288 9.752C5.14288 11.536 6.27203 13.9497 8.52917 16.9909L9.06974 17.704C10.004 18.901 10.9814 20.0626 12 21.1886Z" stroke="black" stroke-linecap="round" stroke-linejoin="round"/>
<path d="M12 12.5714C13.578 12.5714 14.8572 11.2922 14.8572 9.71429C14.8572 8.13633 13.578 6.85715 12 6.85715C10.4221 6.85715 9.14288 8.13633 9.14288 9.71429C9.14288 11.2922 10.4221 12.5714 12 12.5714Z" stroke="black" stroke-linecap="round" stroke-linejoin="round"/>
</svg>
