<svg width="27" height="32" viewBox="0 0 27 32" fill="none" xmlns="http://www.w3.org/2000/svg">
<path d="M4.75 12.125V9.57293C4.75 4.6073 8.40021 0.458344 13.5 0.458344C18.5998 0.458344 22.25 4.6073 22.25 9.57293V12.125H22.9792C23.9461 12.125 24.8734 12.5091 25.5572 13.1929C26.2409 13.8766 26.625 14.8039 26.625 15.7708V27.4375C26.625 28.4044 26.2409 29.3318 25.5572 30.0155C24.8734 30.6992 23.9461 31.0833 22.9792 31.0833H4.02083C3.0539 31.0833 2.12657 30.6992 1.44284 30.0155C0.759113 29.3318 0.375 28.4044 0.375 27.4375V15.7708C0.375 14.8039 0.759113 13.8766 1.44284 13.1929C2.12657 12.5091 3.0539 12.125 4.02083 12.125H4.75ZM2.5625 15.7708V27.4375C2.5625 27.8243 2.71615 28.1952 2.98964 28.4687C3.26313 28.7422 3.63406 28.8958 4.02083 28.8958H22.9792C23.3659 28.8958 23.7369 28.7422 24.0104 28.4687C24.2839 28.1952 24.4375 27.8243 24.4375 27.4375V15.7708C24.4375 15.3841 24.2839 15.0131 24.0104 14.7396C23.7369 14.4662 23.3659 14.3125 22.9792 14.3125H4.02083C3.63406 14.3125 3.26313 14.4662 2.98964 14.7396C2.71615 15.0131 2.5625 15.3841 2.5625 15.7708ZM6.9375 9.57293V12.125H20.0625V9.57293C20.0625 5.67918 17.2596 2.64584 13.5 2.64584C9.74042 2.64584 6.9375 5.67918 6.9375 9.57293Z" fill="black" fill-opacity="0.43"/>
</svg>
