<svg width="35" height="35" viewBox="0 0 35 35" fill="none" xmlns="http://www.w3.org/2000/svg">
<path d="M23.3333 13.125C32.0833 13.125 32.0833 18.9584 32.0833 18.9584V21.875H23.3333V18.9584C23.3333 18.9584 23.3333 16.4938 21.6562 14.2917C21.4083 13.9563 21.102 13.6355 20.7812 13.3292C21.5395 13.2125 22.3708 13.125 23.3333 13.125ZM2.91663 18.9584C2.91663 18.9584 2.91663 13.125 11.6666 13.125C20.4166 13.125 20.4166 18.9584 20.4166 18.9584V21.875H2.91663V18.9584ZM13.125 24.7917V27.7084H21.875V24.7917L26.25 29.1667L21.875 33.5417V30.625H13.125V33.5417L8.74996 29.1667L13.125 24.7917ZM11.6666 1.45837C9.24579 1.45837 7.29163 3.41254 7.29163 5.83337C7.29163 8.25421 9.24579 10.2084 11.6666 10.2084C14.0875 10.2084 16.0416 8.25421 16.0416 5.83337C16.0416 3.41254 14.0875 1.45837 11.6666 1.45837ZM23.3333 1.45837C20.9125 1.45837 18.9583 3.41254 18.9583 5.83337C18.9583 8.25421 20.9125 10.2084 23.3333 10.2084C25.7541 10.2084 27.7083 8.25421 27.7083 5.83337C27.7083 3.41254 25.7541 1.45837 23.3333 1.45837Z" fill="white"/>
</svg>
