<svg width="17" height="17" viewBox="0 0 17 17" fill="none" xmlns="http://www.w3.org/2000/svg">
<path d="M16.1773 11.1496L12.3022 9.41299C12.1266 9.33776 11.935 9.30751 11.7448 9.32499C11.5546 9.34246 11.3717 9.40711 11.2128 9.51307C11.1967 9.52343 11.1813 9.53494 11.1668 9.54753L9.14149 11.2702C9.12048 11.2816 9.09709 11.288 9.07317 11.2889C9.04925 11.2898 9.02546 11.285 9.00368 11.2751C7.70184 10.6467 6.35325 9.30635 5.72243 8.02256C5.71193 8.00111 5.70647 7.97754 5.70647 7.95366C5.70647 7.92977 5.71193 7.9062 5.72243 7.88475L7.45083 5.83397C7.46323 5.8188 7.47473 5.80291 7.48528 5.78639C7.58978 5.62685 7.6529 5.44379 7.66894 5.25374C7.68498 5.06369 7.65344 4.87264 7.57716 4.69784L5.85286 0.829244C5.75494 0.600876 5.58559 0.410427 5.37024 0.28648C5.15488 0.162533 4.90514 0.111774 4.65849 0.141822C3.58652 0.282749 2.60255 0.809177 1.89044 1.62273C1.17834 2.43629 0.786825 3.4813 0.789072 4.56249C0.789072 10.9855 6.01446 16.2109 12.4375 16.2109C13.5186 16.213 14.5636 15.8214 15.3771 15.1093C16.1906 14.3973 16.7171 13.4134 16.8582 12.3415C16.8882 12.096 16.8381 11.8474 16.7154 11.6326C16.5927 11.4179 16.404 11.2485 16.1773 11.1496ZM12.4375 15.2265C6.55751 15.2265 1.77345 10.4425 1.77345 4.56249C1.7707 3.72079 2.0745 2.90688 2.62809 2.27284C3.18167 1.63879 3.94716 1.22799 4.78153 1.11717H4.8004C4.83346 1.11779 4.86556 1.12838 4.89249 1.14756C4.91942 1.16673 4.93994 1.1936 4.95134 1.22463L6.6822 5.08913C6.69207 5.11061 6.69718 5.13398 6.69718 5.15762C6.69718 5.18127 6.69207 5.20463 6.6822 5.22612L4.95052 7.28182C4.9376 7.2965 4.92581 7.31213 4.91524 7.32858C4.80688 7.494 4.74308 7.6846 4.73 7.88192C4.71692 8.07924 4.75502 8.27659 4.8406 8.45487C5.56821 9.94456 7.06938 11.4342 8.57548 12.1619C8.7548 12.247 8.95311 12.2841 9.15108 12.2698C9.34905 12.2554 9.53991 12.19 9.70505 12.0798C9.72063 12.0692 9.73622 12.0577 9.75099 12.0454L11.7755 10.3227C11.7955 10.312 11.8176 10.3057 11.8402 10.3043C11.8629 10.3028 11.8856 10.3063 11.9068 10.3145L15.7827 12.0511C15.8144 12.0646 15.841 12.0877 15.8588 12.1171C15.8766 12.1466 15.8848 12.1809 15.882 12.2152C15.7718 13.0499 15.3613 13.816 14.7274 14.3702C14.0935 14.9244 13.2795 15.2288 12.4375 15.2265Z" fill="black"/>
</svg>
