<svg width="24" height="24" viewBox="0 0 24 24" fill="none" xmlns="http://www.w3.org/2000/svg">
<rect width="24" height="24" fill="#F5F5F5"/>
<g id="Settings" clip-path="url(#clip0_0_1)">
<rect width="1280" height="880" transform="translate(-22 -273)" fill="white"/>
<g id="Side bar">
<rect id="Rectangle 70" x="189" y="607" width="213" height="886" transform="rotate(-180 189 607)" fill="url(#paint0_linear_0_1)"/>
<g id="Technicians">
<g id="mdi:account-service">
<path id="Vector" d="M22.9 21.2L18.8 17.1C19.2 16.1 19 14.8 18.1 14C17.2 13.1 15.9 12.9 14.8 13.4L16.7 15.3L15.3 16.7L13.3 14.7C12.8 15.8 13 17.1 13.9 18.1C14.8 19 16 19.2 17 18.8L21.1 22.9C21.3 23.1 21.6 23.1 21.7 22.9L22.7 21.9C23 21.6 23 21.3 22.9 21.2ZM13 20H2V18C2 15.8 5.6 14 10 14C10.5 14 11 14 11.4 14.1C11.1 14.7 11 15.3 11 16C11 17.6 11.8 19.1 13 20ZM10 4C7.8 4 6 5.8 6 8C6 10.2 7.8 12 10 12C12.2 12 14 10.2 14 8C14 5.8 12.2 4 10 4Z" fill="white"/>
</g>
</g>
</g>
</g>
<defs>
<linearGradient id="paint0_linear_0_1" x1="295.5" y1="607" x2="295.5" y2="1493" gradientUnits="userSpaceOnUse">
<stop offset="0.791073" stop-color="#015D7B"/>
<stop offset="1" stop-color="#015D7B" stop-opacity="0"/>
</linearGradient>
<clipPath id="clip0_0_1">
<rect width="1280" height="880" fill="white" transform="translate(-22 -273)"/>
</clipPath>
</defs>
</svg>
