<svg width="32" height="30" viewBox="0 0 32 30" fill="none" xmlns="http://www.w3.org/2000/svg">
<path d="M5.875 6.0625C5.875 5.01821 6.28984 4.01669 7.02827 3.27827C7.76669 2.53984 8.76821 2.125 9.8125 2.125C10.8568 2.125 11.8583 2.53984 12.5967 3.27827C13.3352 4.01669 13.75 5.01821 13.75 6.0625C13.75 7.10679 13.3352 8.10831 12.5967 8.84673C11.8583 9.58516 10.8568 10 9.8125 10C8.76821 10 7.76669 9.58516 7.02827 8.84673C6.28984 8.10831 5.875 7.10679 5.875 6.0625ZM9.8125 0.375C8.30408 0.375 6.85744 0.974217 5.79083 2.04083C4.72422 3.10744 4.125 4.55408 4.125 6.0625C4.125 7.57092 4.72422 9.01756 5.79083 10.0842C6.85744 11.1508 8.30408 11.75 9.8125 11.75C11.3209 11.75 12.7676 11.1508 13.8342 10.0842C14.9008 9.01756 15.5 7.57092 15.5 6.0625C15.5 4.55408 14.9008 3.10744 13.8342 2.04083C12.7676 0.974217 11.3209 0.375 9.8125 0.375ZM0.625 17C0.625 16.0717 0.993749 15.1815 1.65013 14.5251C2.3065 13.8687 3.19674 13.5 4.125 13.5H15.5C16.1094 13.4995 16.7085 13.6582 17.2378 13.9602C16.753 14.3627 16.3085 14.8108 15.9112 15.299C15.7766 15.2665 15.6385 15.2501 15.5 15.25H4.125C3.66087 15.25 3.21575 15.4344 2.88756 15.7626C2.55937 16.0908 2.375 16.5359 2.375 17V17.1365L2.38725 17.2817C2.48207 18.1207 2.78133 18.9235 3.25875 19.6197C4.111 20.8517 5.89775 22.25 9.8125 22.25C11.482 22.25 12.7647 21.9963 13.7535 21.6077C13.7675 22.2203 13.8392 22.8153 13.9635 23.3927C12.8347 23.7725 11.468 24 9.8125 24C5.41475 24 3.04525 22.39 1.8185 20.6155C1.17244 19.6745 0.769607 18.588 0.646 17.4532C0.635543 17.3514 0.628539 17.2493 0.625 17.147V17ZM20.75 7.375C20.75 6.67881 21.0266 6.01113 21.5188 5.51884C22.0111 5.02656 22.6788 4.75 23.375 4.75C24.0712 4.75 24.7389 5.02656 25.2312 5.51884C25.7234 6.01113 26 6.67881 26 7.375C26 8.07119 25.7234 8.73887 25.2312 9.23116C24.7389 9.72344 24.0712 10 23.375 10C22.6788 10 22.0111 9.72344 21.5188 9.23116C21.0266 8.73887 20.75 8.07119 20.75 7.375ZM23.375 3C22.2147 3 21.1019 3.46094 20.2814 4.28141C19.4609 5.10188 19 6.21468 19 7.375C19 8.53532 19.4609 9.64812 20.2814 10.4686C21.1019 11.2891 22.2147 11.75 23.375 11.75C24.5353 11.75 25.6481 11.2891 26.4686 10.4686C27.2891 9.64812 27.75 8.53532 27.75 7.375C27.75 6.21468 27.2891 5.10188 26.4686 4.28141C25.6481 3.46094 24.5353 3 23.375 3ZM15.5 21.375C15.5 23.4636 16.3297 25.4666 17.8065 26.9435C19.2834 28.4203 21.2864 29.25 23.375 29.25C25.4636 29.25 27.4666 28.4203 28.9435 26.9435C30.4203 25.4666 31.25 23.4636 31.25 21.375C31.25 19.2864 30.4203 17.2834 28.9435 15.8065C27.4666 14.3297 25.4636 13.5 23.375 13.5C21.2864 13.5 19.2834 14.3297 17.8065 15.8065C16.3297 17.2834 15.5 19.2864 15.5 21.375ZM26.875 16.125C27.1071 16.125 27.3296 16.2172 27.4937 16.3813C27.6578 16.5454 27.75 16.7679 27.75 17V19.625C27.75 19.8571 27.6578 20.0796 27.4937 20.2437C27.3296 20.4078 27.1071 20.5 26.875 20.5H24.25C24.0179 20.5 23.7954 20.4078 23.6313 20.2437C23.4672 20.0796 23.375 19.8571 23.375 19.625C23.375 19.3929 23.4672 19.1704 23.6313 19.0063C23.7954 18.8422 24.0179 18.75 24.25 18.75H25.069C24.4043 18.3818 23.6379 18.2401 22.8855 18.3461C22.1331 18.4522 21.4357 18.8004 20.8988 19.338C20.7325 19.4908 20.5136 19.5734 20.2879 19.5686C20.0622 19.5637 19.847 19.4718 19.6875 19.312C19.5279 19.1523 19.4363 18.937 19.4318 18.7113C19.4273 18.4855 19.5102 18.2668 19.6632 18.1007C20.4805 17.2839 21.5444 16.7593 22.69 16.6084C23.8356 16.4575 24.9991 16.6886 26 17.266V17C26 16.7679 26.0922 16.5454 26.2563 16.3813C26.4204 16.2172 26.6429 16.125 26.875 16.125ZM25.342 25.806C24.6024 26.1048 23.8045 26.2311 23.0088 26.1753C22.2131 26.1195 21.4406 25.8831 20.75 25.484V25.75C20.75 25.9821 20.6578 26.2046 20.4937 26.3687C20.3296 26.5328 20.1071 26.625 19.875 26.625C19.6429 26.625 19.4204 26.5328 19.2563 26.3687C19.0922 26.2046 19 25.9821 19 25.75V23.125C19 22.8929 19.0922 22.6704 19.2563 22.5063C19.4204 22.3422 19.6429 22.25 19.875 22.25H22.5C22.7321 22.25 22.9546 22.3422 23.1187 22.5063C23.2828 22.6704 23.375 22.8929 23.375 23.125C23.375 23.3571 23.2828 23.5796 23.1187 23.7437C22.9546 23.9078 22.7321 24 22.5 24H21.681C22.3457 24.3682 23.1121 24.5099 23.8645 24.4039C24.6169 24.2978 25.3143 23.9496 25.8512 23.412C26.0175 23.2592 26.2364 23.1766 26.4621 23.1814C26.6878 23.1863 26.903 23.2782 27.0625 23.438C27.2221 23.5977 27.3137 23.813 27.3182 24.0387C27.3227 24.2645 27.2398 24.4832 27.0868 24.6493C26.5898 25.148 25.9947 25.5435 25.342 25.806Z" fill="#0291BF"/>
</svg>
